<?xml version="1.0" encoding="iso-8859-1"?>
<!-- Generator: Adobe Illustrator 19.0.0, SVG Export Plug-In . SVG Version: 6.00 Build 0)  -->
<svg version="1.1" id="Capa_1" xmlns="http://www.w3.org/2000/svg" xmlns:xlink="http://www.w3.org/1999/xlink" x="0px" y="0px"
	 viewBox="0 0 512 512" style="enable-background:new 0 0 512 512;" xml:space="preserve">
<path style="fill:#17ACE8;" d="M257,422c-90.967,0-167-76.019-167-167S166.033,90,257,90s165,74.019,165,165S347.967,422,257,422z"
	/>
<path style="fill:#1689FC;" d="M422,255c0-90.981-74.033-165-165-165v332C347.967,422,422,345.981,422,255z"/>
<path style="fill:#CAE8F9;" d="M225,332h-60c-8.291,0-15-6.709-15-15c0-38.159,22.031-52.186,38.145-60.96
	C202.236,248.35,210,244.116,210,225c0-8.276-6.738-15-15-15s-15,6.724-15,15c0,19.773-30,19.854-30,0c0-24.814,20.186-45,45-45
	s45,20.186,45,45c0,36.914-21.68,48.735-37.5,57.363c-9.961,5.449-16.875,11.214-20.186,19.637H225C244.773,302,244.854,332,225,332
	z"/>
<path style="fill:#B7E0F6;" d="M377,240h-15v-45c0-19.773-30-19.854-30,0v45h-30v-45c0-19.773-30-19.854-30,0v60
	c0,8.291,6.709,15,15,15h45v47c0,19.773,30,19.854,30,0v-47h15C396.773,270,396.854,240,377,240z"/>
<path style="fill:#FEA832;" d="M482,75v60c0,8.399-6.599,15-15,15h-60c-8.401,0-15-6.601-15-15c0-8.401,6.599-15,15-15h29.7
	C394.703,63.9,328.1,30,257,30C132.8,30,30,130.8,30,255c0,8.399-6.599,15-15,15s-15-6.601-15-15C0,114.3,116.302,0,257,0
	c75.901,0,147.001,34.499,195,91.5V75c0-8.401,6.599-15,15-15S482,66.599,482,75z"/>
<path style="fill:#FE9923;" d="M257,30V0c75.901,0,147.001,34.499,195,91.5V75c0-8.401,6.599-15,15-15s15,6.599,15,15v60
	c0,8.399-6.599,15-15,15h-60c-8.401,0-15-6.601-15-15c0-8.401,6.599-15,15-15h29.7C394.703,63.9,328.1,30,257,30z"/>
<path style="fill:#FEA832;" d="M512,255c0,140.7-114.302,257-255,257c-75.901,0-149.001-34.501-197-91.5V437
	c0,19.799-30,19.799-30,0v-60c0-8.401,6.599-15,15-15h60c19.797,0,19.797,30,0,30H75.3c41.997,56.1,110.6,90,181.7,90
	c124.2,0,225-102.8,225-227C482,235.199,512,235.199,512,255z"/>
<path style="fill:#FE9923;" d="M512,255c0,140.7-114.302,257-255,257v-30c124.2,0,225-102.8,225-227
	C482,235.199,512,235.199,512,255z"/>
<g>
</g>
<g>
</g>
<g>
</g>
<g>
</g>
<g>
</g>
<g>
</g>
<g>
</g>
<g>
</g>
<g>
</g>
<g>
</g>
<g>
</g>
<g>
</g>
<g>
</g>
<g>
</g>
<g>
</g>
</svg>
