<?xml version="1.0" encoding="iso-8859-1"?>
<!-- Generator: Adobe Illustrator 19.0.0, SVG Export Plug-In . SVG Version: 6.00 Build 0)  -->
<svg version="1.1" id="Layer_1" xmlns="http://www.w3.org/2000/svg" xmlns:xlink="http://www.w3.org/1999/xlink" x="0px" y="0px"
	 viewBox="0 0 512 512" style="enable-background:new 0 0 512 512;" xml:space="preserve">
<g>
	<g>
		<g>
			<path d="M472.822,86.5V62.088h-70.305V86.5h-41.714c-0.57-19.33-7.181-37.499-19.237-52.694C324.519,12.322,299.03,0,271.634,0
				h-31.269c-48.287,0-87.734,38.557-89.179,86.5h-43.3V62.088H37.581V86.5H0v407.4h45.152V512h55.906v-18.1h309.883V512h55.906
				v-18.1H512V86.5H472.822z M417.517,77.088h40.305V86.5h-40.305V77.088z M240.366,15h31.269c22.79,0,43.997,10.253,58.181,28.129
				c9.931,12.517,15.432,27.46,15.996,43.371H308.52c2.331-4.186,3.66-9.003,3.66-14.125c0-6.027-1.827-11.812-5.283-16.731
				c-5.454-7.76-14.367-12.394-23.842-12.394h-54.109c-16.06,0-29.125,13.065-29.125,29.125c0,5.122,1.329,9.939,3.66,14.125h-37.29
				C167.628,46.829,200.35,15,240.366,15z M297.179,72.375c0,7.789-6.336,14.125-14.125,14.125h-54.109
				c-7.788,0-14.125-6.336-14.125-14.125s6.336-14.125,14.125-14.125h54.109c4.596,0,8.921,2.25,11.569,6.018
				C296.295,66.648,297.179,69.451,297.179,72.375z M52.581,77.088h40.305V86.5H52.581V77.088z M60.152,497v-3.1h25.906v3.1H60.152z
				 M451.848,497h-25.906v-3.1h25.906V497z M497,478.9h-30.152h-55.906H101.059H45.152H15V101.5h22.581h70.305h43.255h77.804h54.109
				h77.804h41.658h70.305H497V478.9z"/>
			<path d="M256,250.548c-26.854,0-48.702,21.848-48.702,48.702s21.848,48.702,48.702,48.702s48.702-21.848,48.702-48.702
				S282.854,250.548,256,250.548z M256,332.952c-18.583,0-33.702-15.119-33.702-33.702s15.119-33.702,33.702-33.702
				s33.702,15.119,33.702,33.702S274.583,332.952,256,332.952z"/>
			<path d="M342.607,250.203l17.149-17.149l-37.56-37.56l-17.149,17.149c-7.101-4.034-14.629-7.155-22.487-9.322v-24.245h-53.12
				v24.245c-7.858,2.167-15.386,5.289-22.487,9.322l-17.149-17.149l-37.56,37.56l17.149,17.149
				c-4.034,7.102-7.154,14.628-9.322,22.487h-24.245v53.119h24.245c2.168,7.859,5.288,15.385,9.322,22.487l-17.149,17.149
				l37.56,37.56l17.149-17.149c7.101,4.034,14.627,7.154,22.487,9.322v24.245h53.119v-24.245c7.859-2.168,15.386-5.288,22.487-9.322
				l17.149,17.149l37.56-37.56l-17.149-17.149c4.034-7.102,7.154-14.627,9.322-22.487h24.245V272.69h-24.245
				C349.761,264.831,346.641,257.305,342.607,250.203z M361.174,310.81h-21.222l-1.254,5.954
				c-2.149,10.201-6.134,19.814-11.845,28.573l-3.323,5.097l15.013,15.013l-16.348,16.347l-15.012-15.012l-5.097,3.323
				c-8.759,5.711-18.372,9.696-28.573,11.845l-5.954,1.254v21.222H244.44v-21.222l-5.954-1.254
				c-10.201-2.149-19.814-6.134-28.573-11.845l-5.097-3.323l-15.012,15.012l-16.348-16.347l15.013-15.013l-3.323-5.097
				c-5.71-8.759-9.696-18.372-11.845-28.573l-1.254-5.954h-21.222v-23.12h21.222l1.254-5.954
				c2.149-10.201,6.134-19.814,11.845-28.573l3.323-5.097l-15.013-15.013l16.348-16.347l15.012,15.012l5.097-3.323
				c8.761-5.711,18.374-9.696,28.573-11.844l5.954-1.254v-21.223h23.119v21.223l5.954,1.254
				c10.199,2.148,19.813,6.133,28.573,11.844l5.097,3.323l15.012-15.012l16.348,16.347l-15.013,15.013l3.323,5.097
				c5.711,8.759,9.696,18.372,11.845,28.573l1.254,5.954h21.222V310.81z"/>
			<path d="M467.24,304.004h-18.7l0.004-13.264l-0.008-104.628h12.48v-42.234h-39.961v42.234h12.482
				c0.005,38.274,0.012,97.262,0.006,117.892h-17.881v26.265h-8.491v124.353h67.73V330.269h-7.661V304.004z M436.055,158.878h9.961
				v12.234h-9.961V158.878z M430.662,319.004h21.578v11.265h-21.578V319.004z M459.901,439.622h-37.73v-94.353h37.73V439.622z"/>
			<path d="M96.538,144.466l-10.41-4.383v44.89l-8.454,4.847l-8.454-4.847v-44.89l-10.41,4.383
				c-18.093,7.618-29.784,25.223-29.784,44.852c0,15.937,7.876,30.843,20.817,39.891v198.123c0,15.048,11.935,27.29,26.606,27.29
				c8.156,0,15.748-3.757,20.828-10.307c3.726-4.803,5.778-10.834,5.778-16.983v-196.51c14.273-8.77,23.266-24.576,23.266-41.503
				C126.322,169.689,114.631,152.084,96.538,144.466z M92.556,219.494c-1.721,0.6-9.423,3.131-16.838,3.131v15
				c4.359,0,8.671-0.619,12.338-1.382v191.088c0,2.878-0.909,5.571-2.63,7.789c-2.219,2.86-5.49,4.501-8.976,4.501
				c-6.4,0-11.606-5.513-11.606-12.29V220.729l-3.788-2.158c-10.504-5.984-17.03-17.193-17.03-29.253
				c0-9.294,3.79-17.933,10.194-24.148v28.494l23.454,13.447l23.454-13.447V165.17c6.405,6.216,10.194,14.855,10.194,24.148
				C111.322,202.047,103.963,213.854,92.556,219.494z"/>
		</g>
	</g>
</g>
<g>
</g>
<g>
</g>
<g>
</g>
<g>
</g>
<g>
</g>
<g>
</g>
<g>
</g>
<g>
</g>
<g>
</g>
<g>
</g>
<g>
</g>
<g>
</g>
<g>
</g>
<g>
</g>
<g>
</g>
</svg>
