<?xml version="1.0" encoding="iso-8859-1"?>
<!-- Generator: Adobe Illustrator 19.0.0, SVG Export Plug-In . SVG Version: 6.00 Build 0)  -->
<svg version="1.1" id="Layer_1" xmlns="http://www.w3.org/2000/svg" xmlns:xlink="http://www.w3.org/1999/xlink" x="0px" y="0px"
	 viewBox="0 0 512 512" style="enable-background:new 0 0 512 512;" xml:space="preserve">
<g>
	<g>
		<g>
			<path d="M469.045,42.647H42.956C19.271,42.647,0,61.918,0,85.604v234.167c0,23.688,19.271,42.959,42.956,42.959h144.791
				L173.256,406.2c-13.782,3.602-23.985,16.159-23.985,31.054v15.31c0,9.258,7.529,16.788,16.785,16.788h179.888
				c9.256,0,16.787-7.53,16.787-16.788v-15.31c0-14.895-10.204-27.453-23.987-31.054l-14.49-43.471h144.791
				c23.685,0,42.955-19.271,42.955-42.959V85.604C512,61.918,492.73,42.647,469.045,42.647z M42.956,64.187h426.088
				c11.704,0,21.232,9.443,21.399,21.107H21.555C21.723,73.631,31.253,64.187,42.956,64.187z M330.635,426.7
				c5.82,0,10.557,4.733,10.557,10.554v10.558h-0.001h-170.38v-10.558c0-5.82,4.733-10.554,10.554-10.554H330.635z M196.307,405.161
				l14.144-42.432h91.097l14.144,42.432H196.307z M490.46,319.771c0,11.809-9.606,21.417-21.415,21.417H309.311H202.689H42.956
				c-11.809,0-21.416-9.608-21.416-21.417V309.42h468.92V319.771z M490.46,287.879H21.54V106.835h468.92V287.879z"/>
			<path d="M253.29,266.768c38.273,0,69.412-31.136,69.412-69.41c0-10.726-2.463-21.183-7.163-30.695l9.424-9.424
				c4.21-4.208,4.21-11.027,0.002-15.232c-4.205-4.205-11.024-4.205-15.231,0l-15.221,15.221c-0.034,0.033-0.069,0.069-0.104,0.103
				l-41.116,41.12l-13.036-13.036c-4.207-4.205-11.025-4.205-15.232,0c-4.205,4.205-4.206,11.024,0,15.232l20.651,20.651
				c2.02,2.019,4.76,3.156,7.617,3.156c2.856,0,5.595-1.136,7.614-3.156l38.114-38.114c1.412,4.558,2.143,9.325,2.143,14.173
				c0,26.395-21.474,47.87-47.872,47.87c-26.397,0-47.873-21.474-47.873-47.87c0-26.397,21.476-47.874,47.873-47.874
				c4.253,0,8.489,0.568,12.586,1.687c5.737,1.567,11.661-1.814,13.228-7.55c1.567-5.738-1.814-11.662-7.552-13.229
				c-5.946-1.624-12.092-2.448-18.263-2.448c-38.275,0-69.413,31.138-69.413,69.414C183.877,235.632,215.016,266.768,253.29,266.768
				z"/>
			<path d="M53.419,266.769c5.947,0,10.77-4.822,10.77-10.77v-50.467c0-5.946-4.823-10.77-10.77-10.77
				c-5.948,0-10.77,4.824-10.77,10.77v50.467C42.649,261.947,47.471,266.769,53.419,266.769z"/>
			<path d="M53.419,185.431c5.947,0,10.77-4.824,10.77-10.77v-0.783c0-5.949-4.823-10.77-10.77-10.77
				c-5.948,0-10.77,4.822-10.77,10.77v0.783C42.649,180.607,47.471,185.431,53.419,185.431z"/>
		</g>
	</g>
</g>
<g>
</g>
<g>
</g>
<g>
</g>
<g>
</g>
<g>
</g>
<g>
</g>
<g>
</g>
<g>
</g>
<g>
</g>
<g>
</g>
<g>
</g>
<g>
</g>
<g>
</g>
<g>
</g>
<g>
</g>
</svg>
